<mxfile host="app.diagrams.net" modified="2023-04-26T00:14:32.521Z" agent="Mozilla/5.0 (Windows NT 10.0; Win64; x64) AppleWebKit/537.36 (KHTML, like Gecko) Chrome/112.0.0.0 Safari/537.36" etag="D-rFW_oaN4jyeUqi3ITh" version="21.2.1" type="google">
  <diagram id="R2lEEEUBdFMjLlhIrx00" name="Page-1">
    <mxGraphModel grid="1" page="1" gridSize="10" guides="1" tooltips="1" connect="1" arrows="1" fold="1" pageScale="1" pageWidth="850" pageHeight="1100" math="0" shadow="0" extFonts="Permanent Marker^https://fonts.googleapis.com/css?family=Permanent+Marker">
      <root>
        <mxCell id="0" />
        <mxCell id="1" parent="0" />
        <mxCell id="X4Xl9BsfQZ1o-qGfEfdW-98" value="" style="group" connectable="0" vertex="1" parent="1">
          <mxGeometry x="1210" y="30" width="250" height="120" as="geometry" />
        </mxCell>
        <mxCell id="X4Xl9BsfQZ1o-qGfEfdW-76" value="IMDbRating_0NF " style="swimlane;strokeColor=default;fontFamily=Helvetica;fontSize=12;fontColor=default;fillColor=none;startSize=30;container=0;" vertex="1" parent="X4Xl9BsfQZ1o-qGfEfdW-98">
          <mxGeometry width="250" height="120" as="geometry" />
        </mxCell>
        <mxCell id="X4Xl9BsfQZ1o-qGfEfdW-83" value="" style="endArrow=none;html=1;rounded=0;fontFamily=Helvetica;fontSize=12;fontColor=default;entryX=1;entryY=0.5;entryDx=0;entryDy=0;exitX=0;exitY=0.5;exitDx=0;exitDy=0;" edge="1" parent="X4Xl9BsfQZ1o-qGfEfdW-98" source="X4Xl9BsfQZ1o-qGfEfdW-76" target="X4Xl9BsfQZ1o-qGfEfdW-76">
          <mxGeometry width="50" height="50" relative="1" as="geometry">
            <mxPoint x="70" y="160" as="sourcePoint" />
            <mxPoint x="120" y="110" as="targetPoint" />
          </mxGeometry>
        </mxCell>
        <mxCell id="X4Xl9BsfQZ1o-qGfEfdW-77" value="" style="shape=partialRectangle;overflow=hidden;connectable=0;fillColor=none;top=0;left=0;bottom=0;right=0;container=0;" vertex="1" parent="X4Xl9BsfQZ1o-qGfEfdW-98">
          <mxGeometry y="30" width="30" height="30" as="geometry">
            <mxRectangle width="30" height="30" as="alternateBounds" />
          </mxGeometry>
        </mxCell>
        <mxCell id="X4Xl9BsfQZ1o-qGfEfdW-78" value="tconst" style="shape=partialRectangle;overflow=hidden;connectable=0;fillColor=none;top=0;left=0;bottom=0;right=0;align=left;spacingLeft=6;strokeColor=default;strokeWidth=1;perimeterSpacing=1;rotation=0;container=0;" vertex="1" parent="X4Xl9BsfQZ1o-qGfEfdW-98">
          <mxGeometry x="30" y="30" width="220" height="30" as="geometry">
            <mxRectangle width="220" height="30" as="alternateBounds" />
          </mxGeometry>
        </mxCell>
        <mxCell id="X4Xl9BsfQZ1o-qGfEfdW-79" value="" style="shape=partialRectangle;overflow=hidden;connectable=0;fillColor=none;top=0;left=0;bottom=0;right=0;container=0;" vertex="1" parent="X4Xl9BsfQZ1o-qGfEfdW-98">
          <mxGeometry y="60" width="30" height="30" as="geometry">
            <mxRectangle width="30" height="30" as="alternateBounds" />
          </mxGeometry>
        </mxCell>
        <mxCell id="X4Xl9BsfQZ1o-qGfEfdW-80" value="average" style="shape=partialRectangle;overflow=hidden;connectable=0;fillColor=none;top=0;left=0;bottom=0;right=0;align=left;spacingLeft=6;container=0;" vertex="1" parent="X4Xl9BsfQZ1o-qGfEfdW-98">
          <mxGeometry x="30" y="60" width="220" height="30" as="geometry">
            <mxRectangle width="220" height="30" as="alternateBounds" />
          </mxGeometry>
        </mxCell>
        <mxCell id="X4Xl9BsfQZ1o-qGfEfdW-81" value="" style="shape=partialRectangle;overflow=hidden;connectable=0;fillColor=none;top=0;left=0;bottom=0;right=0;container=0;" vertex="1" parent="X4Xl9BsfQZ1o-qGfEfdW-98">
          <mxGeometry y="90" width="30" height="30" as="geometry">
            <mxRectangle width="30" height="30" as="alternateBounds" />
          </mxGeometry>
        </mxCell>
        <mxCell id="X4Xl9BsfQZ1o-qGfEfdW-82" value="numVotes" style="shape=partialRectangle;overflow=hidden;connectable=0;fillColor=none;top=0;left=0;bottom=0;right=0;align=left;spacingLeft=6;container=0;" vertex="1" parent="X4Xl9BsfQZ1o-qGfEfdW-98">
          <mxGeometry x="30" y="90" width="220" height="30" as="geometry">
            <mxRectangle width="220" height="30" as="alternateBounds" />
          </mxGeometry>
        </mxCell>
        <mxCell id="X4Xl9BsfQZ1o-qGfEfdW-84" value="" style="endArrow=none;html=1;rounded=0;fontFamily=Helvetica;fontSize=12;fontColor=default;entryX=1;entryY=0.5;entryDx=0;entryDy=0;exitX=0;exitY=0.5;exitDx=0;exitDy=0;" edge="1" parent="X4Xl9BsfQZ1o-qGfEfdW-98">
          <mxGeometry width="50" height="50" relative="1" as="geometry">
            <mxPoint y="89.23" as="sourcePoint" />
            <mxPoint x="250" y="89.23" as="targetPoint" />
          </mxGeometry>
        </mxCell>
        <mxCell id="X4Xl9BsfQZ1o-qGfEfdW-140" value="" style="group" connectable="0" vertex="1" parent="1">
          <mxGeometry x="590" y="30" width="250" height="120" as="geometry" />
        </mxCell>
        <mxCell id="X4Xl9BsfQZ1o-qGfEfdW-141" value="IMDbRating_1NF " style="swimlane;strokeColor=default;fontFamily=Helvetica;fontSize=12;fontColor=default;fillColor=none;startSize=30;container=0;" vertex="1" parent="X4Xl9BsfQZ1o-qGfEfdW-140">
          <mxGeometry width="250" height="120" as="geometry" />
        </mxCell>
        <mxCell id="X4Xl9BsfQZ1o-qGfEfdW-142" value="" style="endArrow=none;html=1;rounded=0;fontFamily=Helvetica;fontSize=12;fontColor=default;entryX=1;entryY=0.5;entryDx=0;entryDy=0;exitX=0;exitY=0.5;exitDx=0;exitDy=0;" edge="1" parent="X4Xl9BsfQZ1o-qGfEfdW-140" source="X4Xl9BsfQZ1o-qGfEfdW-141" target="X4Xl9BsfQZ1o-qGfEfdW-141">
          <mxGeometry width="50" height="50" relative="1" as="geometry">
            <mxPoint x="70" y="160" as="sourcePoint" />
            <mxPoint x="120" y="110" as="targetPoint" />
          </mxGeometry>
        </mxCell>
        <mxCell id="X4Xl9BsfQZ1o-qGfEfdW-143" value="PK" style="shape=partialRectangle;overflow=hidden;connectable=0;fillColor=none;top=0;left=0;bottom=0;right=0;container=0;fontStyle=1" vertex="1" parent="X4Xl9BsfQZ1o-qGfEfdW-140">
          <mxGeometry y="30" width="30" height="30" as="geometry">
            <mxRectangle width="30" height="30" as="alternateBounds" />
          </mxGeometry>
        </mxCell>
        <mxCell id="X4Xl9BsfQZ1o-qGfEfdW-144" value="tconst" style="shape=partialRectangle;overflow=hidden;connectable=0;fillColor=none;top=0;left=0;bottom=0;right=0;align=left;spacingLeft=6;strokeColor=default;strokeWidth=1;perimeterSpacing=1;rotation=0;container=0;fontStyle=1" vertex="1" parent="X4Xl9BsfQZ1o-qGfEfdW-140">
          <mxGeometry x="30" y="30" width="220" height="30" as="geometry">
            <mxRectangle width="220" height="30" as="alternateBounds" />
          </mxGeometry>
        </mxCell>
        <mxCell id="X4Xl9BsfQZ1o-qGfEfdW-145" value="" style="shape=partialRectangle;overflow=hidden;connectable=0;fillColor=none;top=0;left=0;bottom=0;right=0;container=0;" vertex="1" parent="X4Xl9BsfQZ1o-qGfEfdW-140">
          <mxGeometry y="60" width="30" height="30" as="geometry">
            <mxRectangle width="30" height="30" as="alternateBounds" />
          </mxGeometry>
        </mxCell>
        <mxCell id="X4Xl9BsfQZ1o-qGfEfdW-146" value="average" style="shape=partialRectangle;overflow=hidden;connectable=0;fillColor=none;top=0;left=0;bottom=0;right=0;align=left;spacingLeft=6;container=0;" vertex="1" parent="X4Xl9BsfQZ1o-qGfEfdW-140">
          <mxGeometry x="30" y="60" width="220" height="30" as="geometry">
            <mxRectangle width="220" height="30" as="alternateBounds" />
          </mxGeometry>
        </mxCell>
        <mxCell id="X4Xl9BsfQZ1o-qGfEfdW-147" value="" style="shape=partialRectangle;overflow=hidden;connectable=0;fillColor=none;top=0;left=0;bottom=0;right=0;container=0;" vertex="1" parent="X4Xl9BsfQZ1o-qGfEfdW-140">
          <mxGeometry y="90" width="30" height="30" as="geometry">
            <mxRectangle width="30" height="30" as="alternateBounds" />
          </mxGeometry>
        </mxCell>
        <mxCell id="X4Xl9BsfQZ1o-qGfEfdW-148" value="numVotes" style="shape=partialRectangle;overflow=hidden;connectable=0;fillColor=none;top=0;left=0;bottom=0;right=0;align=left;spacingLeft=6;container=0;" vertex="1" parent="X4Xl9BsfQZ1o-qGfEfdW-140">
          <mxGeometry x="30" y="90" width="220" height="30" as="geometry">
            <mxRectangle width="220" height="30" as="alternateBounds" />
          </mxGeometry>
        </mxCell>
        <mxCell id="X4Xl9BsfQZ1o-qGfEfdW-149" value="" style="endArrow=none;html=1;rounded=0;fontFamily=Helvetica;fontSize=12;fontColor=default;entryX=1;entryY=0.5;entryDx=0;entryDy=0;exitX=0;exitY=0.5;exitDx=0;exitDy=0;" edge="1" parent="X4Xl9BsfQZ1o-qGfEfdW-140">
          <mxGeometry width="50" height="50" relative="1" as="geometry">
            <mxPoint y="89.23" as="sourcePoint" />
            <mxPoint x="250" y="89.23" as="targetPoint" />
          </mxGeometry>
        </mxCell>
        <mxCell id="X4Xl9BsfQZ1o-qGfEfdW-159" value="" style="group" connectable="0" vertex="1" parent="1">
          <mxGeometry x="320" y="30" width="250" height="420" as="geometry" />
        </mxCell>
        <mxCell id="X4Xl9BsfQZ1o-qGfEfdW-38" value="ProviderShow_1NF" style="swimlane;strokeColor=default;fontFamily=Helvetica;fontSize=12;fontColor=default;fillColor=none;startSize=30;container=0;" vertex="1" parent="X4Xl9BsfQZ1o-qGfEfdW-159">
          <mxGeometry width="250" height="420" as="geometry" />
        </mxCell>
        <mxCell id="X4Xl9BsfQZ1o-qGfEfdW-150" value="show_type" style="shape=partialRectangle;overflow=hidden;connectable=0;fillColor=none;top=0;left=0;bottom=0;right=0;align=left;spacingLeft=6;container=0;" vertex="1" parent="X4Xl9BsfQZ1o-qGfEfdW-38">
          <mxGeometry x="30" y="180" width="220" height="30" as="geometry">
            <mxRectangle width="220" height="30" as="alternateBounds" />
          </mxGeometry>
        </mxCell>
        <mxCell id="X4Xl9BsfQZ1o-qGfEfdW-151" value="release_year" style="shape=partialRectangle;overflow=hidden;connectable=0;fillColor=none;top=0;left=0;bottom=0;right=0;align=left;spacingLeft=6;container=0;" vertex="1" parent="X4Xl9BsfQZ1o-qGfEfdW-38">
          <mxGeometry x="30" y="210" width="220" height="30" as="geometry">
            <mxRectangle width="220" height="30" as="alternateBounds" />
          </mxGeometry>
        </mxCell>
        <mxCell id="X4Xl9BsfQZ1o-qGfEfdW-152" value="age_certification" style="shape=partialRectangle;overflow=hidden;connectable=0;fillColor=none;top=0;left=0;bottom=0;right=0;align=left;spacingLeft=6;container=0;" vertex="1" parent="X4Xl9BsfQZ1o-qGfEfdW-38">
          <mxGeometry x="30" y="240" width="220" height="30" as="geometry">
            <mxRectangle width="220" height="30" as="alternateBounds" />
          </mxGeometry>
        </mxCell>
        <mxCell id="X4Xl9BsfQZ1o-qGfEfdW-153" value="runtime" style="shape=partialRectangle;overflow=hidden;connectable=0;fillColor=none;top=0;left=0;bottom=0;right=0;align=left;spacingLeft=6;container=0;" vertex="1" parent="X4Xl9BsfQZ1o-qGfEfdW-38">
          <mxGeometry x="30" y="270" width="220" height="30" as="geometry">
            <mxRectangle width="220" height="30" as="alternateBounds" />
          </mxGeometry>
        </mxCell>
        <mxCell id="X4Xl9BsfQZ1o-qGfEfdW-154" value="seasons" style="shape=partialRectangle;overflow=hidden;connectable=0;fillColor=none;top=0;left=0;bottom=0;right=0;align=left;spacingLeft=6;container=0;" vertex="1" parent="X4Xl9BsfQZ1o-qGfEfdW-38">
          <mxGeometry x="30" y="300" width="220" height="30" as="geometry">
            <mxRectangle width="220" height="30" as="alternateBounds" />
          </mxGeometry>
        </mxCell>
        <mxCell id="X4Xl9BsfQZ1o-qGfEfdW-155" value="tmdb_popularity" style="shape=partialRectangle;overflow=hidden;connectable=0;fillColor=none;top=0;left=0;bottom=0;right=0;align=left;spacingLeft=6;container=0;" vertex="1" parent="X4Xl9BsfQZ1o-qGfEfdW-38">
          <mxGeometry x="30" y="330" width="220" height="30" as="geometry">
            <mxRectangle width="220" height="30" as="alternateBounds" />
          </mxGeometry>
        </mxCell>
        <mxCell id="X4Xl9BsfQZ1o-qGfEfdW-156" value="tmdb_score" style="shape=partialRectangle;overflow=hidden;connectable=0;fillColor=none;top=0;left=0;bottom=0;right=0;align=left;spacingLeft=6;container=0;" vertex="1" parent="X4Xl9BsfQZ1o-qGfEfdW-38">
          <mxGeometry x="30" y="360" width="220" height="30" as="geometry">
            <mxRectangle width="220" height="30" as="alternateBounds" />
          </mxGeometry>
        </mxCell>
        <mxCell id="X4Xl9BsfQZ1o-qGfEfdW-157" value="genre" style="shape=partialRectangle;overflow=hidden;connectable=0;fillColor=none;top=0;left=0;bottom=0;right=0;align=left;spacingLeft=6;container=0;" vertex="1" parent="X4Xl9BsfQZ1o-qGfEfdW-38">
          <mxGeometry x="30" y="390" width="220" height="30" as="geometry">
            <mxRectangle width="220" height="30" as="alternateBounds" />
          </mxGeometry>
        </mxCell>
        <mxCell id="X4Xl9BsfQZ1o-qGfEfdW-158" value="provider" style="shape=partialRectangle;overflow=hidden;connectable=0;fillColor=none;top=0;left=0;bottom=0;right=0;align=left;spacingLeft=6;container=0;fontStyle=0" vertex="1" parent="X4Xl9BsfQZ1o-qGfEfdW-38">
          <mxGeometry x="30" y="150" width="220" height="30" as="geometry">
            <mxRectangle width="220" height="30" as="alternateBounds" />
          </mxGeometry>
        </mxCell>
        <mxCell id="X4Xl9BsfQZ1o-qGfEfdW-45" value="PK" style="shape=partialRectangle;overflow=hidden;connectable=0;fillColor=none;top=0;left=0;bottom=0;right=0;container=0;fontStyle=1" vertex="1" parent="X4Xl9BsfQZ1o-qGfEfdW-159">
          <mxGeometry y="120" width="30" height="30" as="geometry">
            <mxRectangle width="30" height="30" as="alternateBounds" />
          </mxGeometry>
        </mxCell>
        <mxCell id="X4Xl9BsfQZ1o-qGfEfdW-46" value="genre_id" style="shape=partialRectangle;overflow=hidden;connectable=0;fillColor=none;top=0;left=0;bottom=0;right=0;align=left;spacingLeft=6;container=0;fontStyle=1" vertex="1" parent="X4Xl9BsfQZ1o-qGfEfdW-159">
          <mxGeometry x="30" y="120" width="220" height="30" as="geometry">
            <mxRectangle width="220" height="30" as="alternateBounds" />
          </mxGeometry>
        </mxCell>
        <mxCell id="X4Xl9BsfQZ1o-qGfEfdW-47" value="" style="shape=partialRectangle;overflow=hidden;connectable=0;fillColor=none;top=0;left=0;bottom=0;right=0;container=0;" vertex="1" parent="X4Xl9BsfQZ1o-qGfEfdW-159">
          <mxGeometry y="150" width="30" height="30" as="geometry">
            <mxRectangle width="30" height="30" as="alternateBounds" />
          </mxGeometry>
        </mxCell>
        <mxCell id="X4Xl9BsfQZ1o-qGfEfdW-49" value="" style="shape=partialRectangle;overflow=hidden;connectable=0;fillColor=none;top=0;left=0;bottom=0;right=0;container=0;" vertex="1" parent="X4Xl9BsfQZ1o-qGfEfdW-159">
          <mxGeometry y="180" width="30" height="30" as="geometry">
            <mxRectangle width="30" height="30" as="alternateBounds" />
          </mxGeometry>
        </mxCell>
        <mxCell id="X4Xl9BsfQZ1o-qGfEfdW-51" value="" style="shape=partialRectangle;overflow=hidden;connectable=0;fillColor=none;top=0;left=0;bottom=0;right=0;container=0;" vertex="1" parent="X4Xl9BsfQZ1o-qGfEfdW-159">
          <mxGeometry y="210" width="30" height="30" as="geometry">
            <mxRectangle width="30" height="30" as="alternateBounds" />
          </mxGeometry>
        </mxCell>
        <mxCell id="X4Xl9BsfQZ1o-qGfEfdW-53" value="" style="shape=partialRectangle;overflow=hidden;connectable=0;fillColor=none;top=0;left=0;bottom=0;right=0;container=0;" vertex="1" parent="X4Xl9BsfQZ1o-qGfEfdW-159">
          <mxGeometry y="240" width="30" height="30" as="geometry">
            <mxRectangle width="30" height="30" as="alternateBounds" />
          </mxGeometry>
        </mxCell>
        <mxCell id="X4Xl9BsfQZ1o-qGfEfdW-55" value="" style="shape=partialRectangle;overflow=hidden;connectable=0;fillColor=none;top=0;left=0;bottom=0;right=0;container=0;" vertex="1" parent="X4Xl9BsfQZ1o-qGfEfdW-159">
          <mxGeometry y="270" width="30" height="30" as="geometry">
            <mxRectangle width="30" height="30" as="alternateBounds" />
          </mxGeometry>
        </mxCell>
        <mxCell id="X4Xl9BsfQZ1o-qGfEfdW-57" value="" style="shape=partialRectangle;overflow=hidden;connectable=0;fillColor=none;top=0;left=0;bottom=0;right=0;container=0;" vertex="1" parent="X4Xl9BsfQZ1o-qGfEfdW-159">
          <mxGeometry y="300" width="30" height="30" as="geometry">
            <mxRectangle width="30" height="30" as="alternateBounds" />
          </mxGeometry>
        </mxCell>
        <mxCell id="X4Xl9BsfQZ1o-qGfEfdW-59" value="" style="shape=partialRectangle;overflow=hidden;connectable=0;fillColor=none;top=0;left=0;bottom=0;right=0;container=0;" vertex="1" parent="X4Xl9BsfQZ1o-qGfEfdW-159">
          <mxGeometry y="330" width="30" height="30" as="geometry">
            <mxRectangle width="30" height="30" as="alternateBounds" />
          </mxGeometry>
        </mxCell>
        <mxCell id="X4Xl9BsfQZ1o-qGfEfdW-61" value="" style="shape=partialRectangle;overflow=hidden;connectable=0;fillColor=none;top=0;left=0;bottom=0;right=0;container=0;" vertex="1" parent="X4Xl9BsfQZ1o-qGfEfdW-159">
          <mxGeometry y="360" width="30" height="30" as="geometry">
            <mxRectangle width="30" height="30" as="alternateBounds" />
          </mxGeometry>
        </mxCell>
        <mxCell id="X4Xl9BsfQZ1o-qGfEfdW-73" value="" style="shape=partialRectangle;overflow=hidden;connectable=0;fillColor=none;top=0;left=0;bottom=0;right=0;container=0;" vertex="1" parent="X4Xl9BsfQZ1o-qGfEfdW-159">
          <mxGeometry y="390" width="30" height="30" as="geometry">
            <mxRectangle width="30" height="30" as="alternateBounds" />
          </mxGeometry>
        </mxCell>
        <mxCell id="X4Xl9BsfQZ1o-qGfEfdW-88" value="" style="endArrow=none;html=1;rounded=0;fontFamily=Helvetica;fontSize=12;fontColor=default;entryX=1;entryY=0.5;entryDx=0;entryDy=0;exitX=0;exitY=0.5;exitDx=0;exitDy=0;" edge="1" parent="X4Xl9BsfQZ1o-qGfEfdW-159">
          <mxGeometry width="50" height="50" relative="1" as="geometry">
            <mxPoint y="150" as="sourcePoint" />
            <mxPoint x="250" y="150" as="targetPoint" />
          </mxGeometry>
        </mxCell>
        <mxCell id="X4Xl9BsfQZ1o-qGfEfdW-89" value="" style="endArrow=none;html=1;rounded=0;fontFamily=Helvetica;fontSize=12;fontColor=default;entryX=1;entryY=0.5;entryDx=0;entryDy=0;exitX=0;exitY=0.5;exitDx=0;exitDy=0;" edge="1" parent="X4Xl9BsfQZ1o-qGfEfdW-159">
          <mxGeometry width="50" height="50" relative="1" as="geometry">
            <mxPoint y="209.23000000000002" as="sourcePoint" />
            <mxPoint x="250" y="209.23000000000002" as="targetPoint" />
          </mxGeometry>
        </mxCell>
        <mxCell id="X4Xl9BsfQZ1o-qGfEfdW-90" value="" style="endArrow=none;html=1;rounded=0;fontFamily=Helvetica;fontSize=12;fontColor=default;entryX=1;entryY=0.5;entryDx=0;entryDy=0;exitX=0;exitY=0.5;exitDx=0;exitDy=0;" edge="1" parent="X4Xl9BsfQZ1o-qGfEfdW-159">
          <mxGeometry width="50" height="50" relative="1" as="geometry">
            <mxPoint y="180" as="sourcePoint" />
            <mxPoint x="250" y="180" as="targetPoint" />
          </mxGeometry>
        </mxCell>
        <mxCell id="X4Xl9BsfQZ1o-qGfEfdW-91" value="" style="endArrow=none;html=1;rounded=0;fontFamily=Helvetica;fontSize=12;fontColor=default;entryX=1;entryY=0.5;entryDx=0;entryDy=0;exitX=0;exitY=0.5;exitDx=0;exitDy=0;" edge="1" parent="X4Xl9BsfQZ1o-qGfEfdW-159">
          <mxGeometry width="50" height="50" relative="1" as="geometry">
            <mxPoint y="240" as="sourcePoint" />
            <mxPoint x="250" y="240" as="targetPoint" />
          </mxGeometry>
        </mxCell>
        <mxCell id="X4Xl9BsfQZ1o-qGfEfdW-92" value="" style="endArrow=none;html=1;rounded=0;fontFamily=Helvetica;fontSize=12;fontColor=default;entryX=1;entryY=0.5;entryDx=0;entryDy=0;exitX=0;exitY=0.5;exitDx=0;exitDy=0;" edge="1" parent="X4Xl9BsfQZ1o-qGfEfdW-159">
          <mxGeometry width="50" height="50" relative="1" as="geometry">
            <mxPoint y="299.23" as="sourcePoint" />
            <mxPoint x="250" y="299.23" as="targetPoint" />
          </mxGeometry>
        </mxCell>
        <mxCell id="X4Xl9BsfQZ1o-qGfEfdW-93" value="" style="endArrow=none;html=1;rounded=0;fontFamily=Helvetica;fontSize=12;fontColor=default;entryX=1;entryY=0.5;entryDx=0;entryDy=0;exitX=0;exitY=0.5;exitDx=0;exitDy=0;" edge="1" parent="X4Xl9BsfQZ1o-qGfEfdW-159">
          <mxGeometry width="50" height="50" relative="1" as="geometry">
            <mxPoint y="270" as="sourcePoint" />
            <mxPoint x="250" y="270" as="targetPoint" />
          </mxGeometry>
        </mxCell>
        <mxCell id="X4Xl9BsfQZ1o-qGfEfdW-94" value="" style="endArrow=none;html=1;rounded=0;fontFamily=Helvetica;fontSize=12;fontColor=default;entryX=1;entryY=0.5;entryDx=0;entryDy=0;exitX=0;exitY=0.5;exitDx=0;exitDy=0;" edge="1" parent="X4Xl9BsfQZ1o-qGfEfdW-159">
          <mxGeometry width="50" height="50" relative="1" as="geometry">
            <mxPoint y="330" as="sourcePoint" />
            <mxPoint x="250" y="330" as="targetPoint" />
          </mxGeometry>
        </mxCell>
        <mxCell id="X4Xl9BsfQZ1o-qGfEfdW-95" value="" style="endArrow=none;html=1;rounded=0;fontFamily=Helvetica;fontSize=12;fontColor=default;entryX=1;entryY=0.5;entryDx=0;entryDy=0;exitX=0;exitY=0.5;exitDx=0;exitDy=0;" edge="1" parent="X4Xl9BsfQZ1o-qGfEfdW-159">
          <mxGeometry width="50" height="50" relative="1" as="geometry">
            <mxPoint y="389.23" as="sourcePoint" />
            <mxPoint x="250" y="389.23" as="targetPoint" />
          </mxGeometry>
        </mxCell>
        <mxCell id="X4Xl9BsfQZ1o-qGfEfdW-96" value="" style="endArrow=none;html=1;rounded=0;fontFamily=Helvetica;fontSize=12;fontColor=default;entryX=1;entryY=0.5;entryDx=0;entryDy=0;exitX=0;exitY=0.5;exitDx=0;exitDy=0;" edge="1" parent="X4Xl9BsfQZ1o-qGfEfdW-159">
          <mxGeometry width="50" height="50" relative="1" as="geometry">
            <mxPoint y="360" as="sourcePoint" />
            <mxPoint x="250" y="360" as="targetPoint" />
          </mxGeometry>
        </mxCell>
        <mxCell id="X4Xl9BsfQZ1o-qGfEfdW-39" value="PK" style="shape=partialRectangle;overflow=hidden;connectable=0;fillColor=none;top=0;left=0;bottom=0;right=0;container=0;fontStyle=1" vertex="1" parent="X4Xl9BsfQZ1o-qGfEfdW-159">
          <mxGeometry y="30" width="30" height="30" as="geometry">
            <mxRectangle width="30" height="30" as="alternateBounds" />
          </mxGeometry>
        </mxCell>
        <mxCell id="X4Xl9BsfQZ1o-qGfEfdW-40" value="provider_id" style="shape=partialRectangle;overflow=hidden;connectable=0;fillColor=none;top=0;left=0;bottom=0;right=0;align=left;spacingLeft=6;container=0;fontStyle=1" vertex="1" parent="X4Xl9BsfQZ1o-qGfEfdW-159">
          <mxGeometry x="30" y="30" width="220" height="30" as="geometry">
            <mxRectangle width="220" height="30" as="alternateBounds" />
          </mxGeometry>
        </mxCell>
        <mxCell id="X4Xl9BsfQZ1o-qGfEfdW-41" value="PK" style="shape=partialRectangle;overflow=hidden;connectable=0;fillColor=none;top=0;left=0;bottom=0;right=0;container=0;fontStyle=1" vertex="1" parent="X4Xl9BsfQZ1o-qGfEfdW-159">
          <mxGeometry y="60" width="30" height="30" as="geometry">
            <mxRectangle width="30" height="30" as="alternateBounds" />
          </mxGeometry>
        </mxCell>
        <mxCell id="X4Xl9BsfQZ1o-qGfEfdW-42" value="title" style="shape=partialRectangle;overflow=hidden;connectable=0;fillColor=none;top=0;left=0;bottom=0;right=0;align=left;spacingLeft=6;container=0;fontStyle=1" vertex="1" parent="X4Xl9BsfQZ1o-qGfEfdW-159">
          <mxGeometry x="30" y="60" width="220" height="30" as="geometry">
            <mxRectangle width="220" height="30" as="alternateBounds" />
          </mxGeometry>
        </mxCell>
        <mxCell id="X4Xl9BsfQZ1o-qGfEfdW-43" value="PK" style="shape=partialRectangle;overflow=hidden;connectable=0;fillColor=none;top=0;left=0;bottom=0;right=0;container=0;fontStyle=1" vertex="1" parent="X4Xl9BsfQZ1o-qGfEfdW-159">
          <mxGeometry y="90" width="30" height="30" as="geometry">
            <mxRectangle width="30" height="30" as="alternateBounds" />
          </mxGeometry>
        </mxCell>
        <mxCell id="X4Xl9BsfQZ1o-qGfEfdW-44" value="show_id" style="shape=partialRectangle;overflow=hidden;connectable=0;fillColor=none;top=0;left=0;bottom=0;right=0;align=left;spacingLeft=6;container=0;fontStyle=1" vertex="1" parent="X4Xl9BsfQZ1o-qGfEfdW-159">
          <mxGeometry x="30" y="90" width="220" height="30" as="geometry">
            <mxRectangle width="220" height="30" as="alternateBounds" />
          </mxGeometry>
        </mxCell>
        <mxCell id="X4Xl9BsfQZ1o-qGfEfdW-85" value="" style="endArrow=none;html=1;rounded=0;fontFamily=Helvetica;fontSize=12;fontColor=default;entryX=1;entryY=0.5;entryDx=0;entryDy=0;exitX=0;exitY=0.5;exitDx=0;exitDy=0;" edge="1" parent="X4Xl9BsfQZ1o-qGfEfdW-159">
          <mxGeometry width="50" height="50" relative="1" as="geometry">
            <mxPoint y="60" as="sourcePoint" />
            <mxPoint x="250" y="60" as="targetPoint" />
          </mxGeometry>
        </mxCell>
        <mxCell id="X4Xl9BsfQZ1o-qGfEfdW-86" value="" style="endArrow=none;html=1;rounded=0;fontFamily=Helvetica;fontSize=12;fontColor=default;entryX=1;entryY=0.5;entryDx=0;entryDy=0;exitX=0;exitY=0.5;exitDx=0;exitDy=0;" edge="1" parent="X4Xl9BsfQZ1o-qGfEfdW-159">
          <mxGeometry width="50" height="50" relative="1" as="geometry">
            <mxPoint y="119.23000000000002" as="sourcePoint" />
            <mxPoint x="250" y="119.23000000000002" as="targetPoint" />
          </mxGeometry>
        </mxCell>
        <mxCell id="X4Xl9BsfQZ1o-qGfEfdW-87" value="" style="endArrow=none;html=1;rounded=0;fontFamily=Helvetica;fontSize=12;fontColor=default;entryX=1;entryY=0.5;entryDx=0;entryDy=0;exitX=0;exitY=0.5;exitDx=0;exitDy=0;" edge="1" parent="X4Xl9BsfQZ1o-qGfEfdW-159">
          <mxGeometry width="50" height="50" relative="1" as="geometry">
            <mxPoint y="90" as="sourcePoint" />
            <mxPoint x="250" y="90" as="targetPoint" />
          </mxGeometry>
        </mxCell>
        <mxCell id="X4Xl9BsfQZ1o-qGfEfdW-312" value="" style="group" connectable="0" vertex="1" parent="1">
          <mxGeometry x="940" y="30" width="250" height="420" as="geometry" />
        </mxCell>
        <mxCell id="X4Xl9BsfQZ1o-qGfEfdW-101" value="ProviderShow_0NF" style="swimlane;strokeColor=default;fontFamily=Helvetica;fontSize=12;fontColor=default;fillColor=none;startSize=30;container=0;" vertex="1" parent="X4Xl9BsfQZ1o-qGfEfdW-312">
          <mxGeometry width="250" height="420" as="geometry" />
        </mxCell>
        <mxCell id="X4Xl9BsfQZ1o-qGfEfdW-103" value="title" style="shape=partialRectangle;overflow=hidden;connectable=0;fillColor=none;top=0;left=0;bottom=0;right=0;align=left;spacingLeft=6;container=0;fontStyle=0" vertex="1" parent="X4Xl9BsfQZ1o-qGfEfdW-312">
          <mxGeometry x="30" y="120" width="220" height="30" as="geometry">
            <mxRectangle width="220" height="30" as="alternateBounds" />
          </mxGeometry>
        </mxCell>
        <mxCell id="X4Xl9BsfQZ1o-qGfEfdW-104" value="" style="shape=partialRectangle;overflow=hidden;connectable=0;fillColor=none;top=0;left=0;bottom=0;right=0;container=0;" vertex="1" parent="X4Xl9BsfQZ1o-qGfEfdW-312">
          <mxGeometry y="150" width="30" height="30" as="geometry">
            <mxRectangle width="30" height="30" as="alternateBounds" />
          </mxGeometry>
        </mxCell>
        <mxCell id="X4Xl9BsfQZ1o-qGfEfdW-105" value="show_type" style="shape=partialRectangle;overflow=hidden;connectable=0;fillColor=none;top=0;left=0;bottom=0;right=0;align=left;spacingLeft=6;container=0;" vertex="1" parent="X4Xl9BsfQZ1o-qGfEfdW-312">
          <mxGeometry x="30" y="150" width="220" height="30" as="geometry">
            <mxRectangle width="220" height="30" as="alternateBounds" />
          </mxGeometry>
        </mxCell>
        <mxCell id="X4Xl9BsfQZ1o-qGfEfdW-106" value="" style="shape=partialRectangle;overflow=hidden;connectable=0;fillColor=none;top=0;left=0;bottom=0;right=0;container=0;" vertex="1" parent="X4Xl9BsfQZ1o-qGfEfdW-312">
          <mxGeometry y="180" width="30" height="30" as="geometry">
            <mxRectangle width="30" height="30" as="alternateBounds" />
          </mxGeometry>
        </mxCell>
        <mxCell id="X4Xl9BsfQZ1o-qGfEfdW-107" value="release_year" style="shape=partialRectangle;overflow=hidden;connectable=0;fillColor=none;top=0;left=0;bottom=0;right=0;align=left;spacingLeft=6;container=0;" vertex="1" parent="X4Xl9BsfQZ1o-qGfEfdW-312">
          <mxGeometry x="30" y="180" width="220" height="30" as="geometry">
            <mxRectangle width="220" height="30" as="alternateBounds" />
          </mxGeometry>
        </mxCell>
        <mxCell id="X4Xl9BsfQZ1o-qGfEfdW-108" value="" style="shape=partialRectangle;overflow=hidden;connectable=0;fillColor=none;top=0;left=0;bottom=0;right=0;container=0;" vertex="1" parent="X4Xl9BsfQZ1o-qGfEfdW-312">
          <mxGeometry y="210" width="30" height="30" as="geometry">
            <mxRectangle width="30" height="30" as="alternateBounds" />
          </mxGeometry>
        </mxCell>
        <mxCell id="X4Xl9BsfQZ1o-qGfEfdW-109" value="age_certification" style="shape=partialRectangle;overflow=hidden;connectable=0;fillColor=none;top=0;left=0;bottom=0;right=0;align=left;spacingLeft=6;container=0;" vertex="1" parent="X4Xl9BsfQZ1o-qGfEfdW-312">
          <mxGeometry x="30" y="210" width="220" height="30" as="geometry">
            <mxRectangle width="220" height="30" as="alternateBounds" />
          </mxGeometry>
        </mxCell>
        <mxCell id="X4Xl9BsfQZ1o-qGfEfdW-110" value="" style="shape=partialRectangle;overflow=hidden;connectable=0;fillColor=none;top=0;left=0;bottom=0;right=0;container=0;" vertex="1" parent="X4Xl9BsfQZ1o-qGfEfdW-312">
          <mxGeometry y="240" width="30" height="30" as="geometry">
            <mxRectangle width="30" height="30" as="alternateBounds" />
          </mxGeometry>
        </mxCell>
        <mxCell id="X4Xl9BsfQZ1o-qGfEfdW-111" value="runtime" style="shape=partialRectangle;overflow=hidden;connectable=0;fillColor=none;top=0;left=0;bottom=0;right=0;align=left;spacingLeft=6;container=0;" vertex="1" parent="X4Xl9BsfQZ1o-qGfEfdW-312">
          <mxGeometry x="30" y="240" width="220" height="30" as="geometry">
            <mxRectangle width="220" height="30" as="alternateBounds" />
          </mxGeometry>
        </mxCell>
        <mxCell id="X4Xl9BsfQZ1o-qGfEfdW-112" value="" style="shape=partialRectangle;overflow=hidden;connectable=0;fillColor=none;top=0;left=0;bottom=0;right=0;container=0;" vertex="1" parent="X4Xl9BsfQZ1o-qGfEfdW-312">
          <mxGeometry y="270" width="30" height="30" as="geometry">
            <mxRectangle width="30" height="30" as="alternateBounds" />
          </mxGeometry>
        </mxCell>
        <mxCell id="X4Xl9BsfQZ1o-qGfEfdW-113" value="seasons" style="shape=partialRectangle;overflow=hidden;connectable=0;fillColor=none;top=0;left=0;bottom=0;right=0;align=left;spacingLeft=6;container=0;" vertex="1" parent="X4Xl9BsfQZ1o-qGfEfdW-312">
          <mxGeometry x="30" y="270" width="220" height="30" as="geometry">
            <mxRectangle width="220" height="30" as="alternateBounds" />
          </mxGeometry>
        </mxCell>
        <mxCell id="X4Xl9BsfQZ1o-qGfEfdW-114" value="" style="shape=partialRectangle;overflow=hidden;connectable=0;fillColor=none;top=0;left=0;bottom=0;right=0;container=0;" vertex="1" parent="X4Xl9BsfQZ1o-qGfEfdW-312">
          <mxGeometry y="300" width="30" height="30" as="geometry">
            <mxRectangle width="30" height="30" as="alternateBounds" />
          </mxGeometry>
        </mxCell>
        <mxCell id="X4Xl9BsfQZ1o-qGfEfdW-115" value="tmdb_popularity" style="shape=partialRectangle;overflow=hidden;connectable=0;fillColor=none;top=0;left=0;bottom=0;right=0;align=left;spacingLeft=6;container=0;" vertex="1" parent="X4Xl9BsfQZ1o-qGfEfdW-312">
          <mxGeometry x="30" y="300" width="220" height="30" as="geometry">
            <mxRectangle width="220" height="30" as="alternateBounds" />
          </mxGeometry>
        </mxCell>
        <mxCell id="X4Xl9BsfQZ1o-qGfEfdW-116" value="" style="shape=partialRectangle;overflow=hidden;connectable=0;fillColor=none;top=0;left=0;bottom=0;right=0;container=0;" vertex="1" parent="X4Xl9BsfQZ1o-qGfEfdW-312">
          <mxGeometry y="330" width="30" height="30" as="geometry">
            <mxRectangle width="30" height="30" as="alternateBounds" />
          </mxGeometry>
        </mxCell>
        <mxCell id="X4Xl9BsfQZ1o-qGfEfdW-117" value="tmdb_score" style="shape=partialRectangle;overflow=hidden;connectable=0;fillColor=none;top=0;left=0;bottom=0;right=0;align=left;spacingLeft=6;container=0;" vertex="1" parent="X4Xl9BsfQZ1o-qGfEfdW-312">
          <mxGeometry x="30" y="330" width="220" height="30" as="geometry">
            <mxRectangle width="220" height="30" as="alternateBounds" />
          </mxGeometry>
        </mxCell>
        <mxCell id="X4Xl9BsfQZ1o-qGfEfdW-118" value="" style="shape=partialRectangle;overflow=hidden;connectable=0;fillColor=none;top=0;left=0;bottom=0;right=0;container=0;" vertex="1" parent="X4Xl9BsfQZ1o-qGfEfdW-312">
          <mxGeometry y="360" width="30" height="30" as="geometry">
            <mxRectangle width="30" height="30" as="alternateBounds" />
          </mxGeometry>
        </mxCell>
        <mxCell id="X4Xl9BsfQZ1o-qGfEfdW-119" value="genre_id" style="shape=partialRectangle;overflow=hidden;connectable=0;fillColor=none;top=0;left=0;bottom=0;right=0;align=left;spacingLeft=6;container=0;" vertex="1" parent="X4Xl9BsfQZ1o-qGfEfdW-312">
          <mxGeometry x="30" y="360" width="220" height="30" as="geometry">
            <mxRectangle width="220" height="30" as="alternateBounds" />
          </mxGeometry>
        </mxCell>
        <mxCell id="X4Xl9BsfQZ1o-qGfEfdW-120" value="" style="shape=partialRectangle;overflow=hidden;connectable=0;fillColor=none;top=0;left=0;bottom=0;right=0;container=0;" vertex="1" parent="X4Xl9BsfQZ1o-qGfEfdW-312">
          <mxGeometry y="390" width="30" height="30" as="geometry">
            <mxRectangle width="30" height="30" as="alternateBounds" />
          </mxGeometry>
        </mxCell>
        <mxCell id="X4Xl9BsfQZ1o-qGfEfdW-121" value="genre" style="shape=partialRectangle;overflow=hidden;connectable=0;fillColor=none;top=0;left=0;bottom=0;right=0;align=left;spacingLeft=6;container=0;" vertex="1" parent="X4Xl9BsfQZ1o-qGfEfdW-312">
          <mxGeometry x="30" y="390" width="220" height="30" as="geometry">
            <mxRectangle width="220" height="30" as="alternateBounds" />
          </mxGeometry>
        </mxCell>
        <mxCell id="X4Xl9BsfQZ1o-qGfEfdW-122" value="" style="endArrow=none;html=1;rounded=0;fontFamily=Helvetica;fontSize=12;fontColor=default;entryX=1;entryY=0.5;entryDx=0;entryDy=0;exitX=0;exitY=0.5;exitDx=0;exitDy=0;fontStyle=0" edge="1" parent="X4Xl9BsfQZ1o-qGfEfdW-312">
          <mxGeometry width="50" height="50" relative="1" as="geometry">
            <mxPoint y="150" as="sourcePoint" />
            <mxPoint x="250" y="150" as="targetPoint" />
          </mxGeometry>
        </mxCell>
        <mxCell id="X4Xl9BsfQZ1o-qGfEfdW-123" value="" style="endArrow=none;html=1;rounded=0;fontFamily=Helvetica;fontSize=12;fontColor=default;entryX=1;entryY=0.5;entryDx=0;entryDy=0;exitX=0;exitY=0.5;exitDx=0;exitDy=0;" edge="1" parent="X4Xl9BsfQZ1o-qGfEfdW-312">
          <mxGeometry width="50" height="50" relative="1" as="geometry">
            <mxPoint y="209.23000000000002" as="sourcePoint" />
            <mxPoint x="250" y="209.23000000000002" as="targetPoint" />
          </mxGeometry>
        </mxCell>
        <mxCell id="X4Xl9BsfQZ1o-qGfEfdW-124" value="" style="endArrow=none;html=1;rounded=0;fontFamily=Helvetica;fontSize=12;fontColor=default;entryX=1;entryY=0.5;entryDx=0;entryDy=0;exitX=0;exitY=0.5;exitDx=0;exitDy=0;" edge="1" parent="X4Xl9BsfQZ1o-qGfEfdW-312">
          <mxGeometry width="50" height="50" relative="1" as="geometry">
            <mxPoint y="180" as="sourcePoint" />
            <mxPoint x="250" y="180" as="targetPoint" />
          </mxGeometry>
        </mxCell>
        <mxCell id="X4Xl9BsfQZ1o-qGfEfdW-125" value="" style="endArrow=none;html=1;rounded=0;fontFamily=Helvetica;fontSize=12;fontColor=default;entryX=1;entryY=0.5;entryDx=0;entryDy=0;exitX=0;exitY=0.5;exitDx=0;exitDy=0;" edge="1" parent="X4Xl9BsfQZ1o-qGfEfdW-312">
          <mxGeometry width="50" height="50" relative="1" as="geometry">
            <mxPoint y="240" as="sourcePoint" />
            <mxPoint x="250" y="240" as="targetPoint" />
          </mxGeometry>
        </mxCell>
        <mxCell id="X4Xl9BsfQZ1o-qGfEfdW-126" value="" style="endArrow=none;html=1;rounded=0;fontFamily=Helvetica;fontSize=12;fontColor=default;entryX=1;entryY=0.5;entryDx=0;entryDy=0;exitX=0;exitY=0.5;exitDx=0;exitDy=0;" edge="1" parent="X4Xl9BsfQZ1o-qGfEfdW-312">
          <mxGeometry width="50" height="50" relative="1" as="geometry">
            <mxPoint y="299.23" as="sourcePoint" />
            <mxPoint x="250" y="299.23" as="targetPoint" />
          </mxGeometry>
        </mxCell>
        <mxCell id="X4Xl9BsfQZ1o-qGfEfdW-127" value="" style="endArrow=none;html=1;rounded=0;fontFamily=Helvetica;fontSize=12;fontColor=default;entryX=1;entryY=0.5;entryDx=0;entryDy=0;exitX=0;exitY=0.5;exitDx=0;exitDy=0;" edge="1" parent="X4Xl9BsfQZ1o-qGfEfdW-312">
          <mxGeometry width="50" height="50" relative="1" as="geometry">
            <mxPoint y="270" as="sourcePoint" />
            <mxPoint x="250" y="270" as="targetPoint" />
          </mxGeometry>
        </mxCell>
        <mxCell id="X4Xl9BsfQZ1o-qGfEfdW-128" value="" style="endArrow=none;html=1;rounded=0;fontFamily=Helvetica;fontSize=12;fontColor=default;entryX=1;entryY=0.5;entryDx=0;entryDy=0;exitX=0;exitY=0.5;exitDx=0;exitDy=0;" edge="1" parent="X4Xl9BsfQZ1o-qGfEfdW-312">
          <mxGeometry width="50" height="50" relative="1" as="geometry">
            <mxPoint y="330" as="sourcePoint" />
            <mxPoint x="250" y="330" as="targetPoint" />
          </mxGeometry>
        </mxCell>
        <mxCell id="X4Xl9BsfQZ1o-qGfEfdW-129" value="" style="endArrow=none;html=1;rounded=0;fontFamily=Helvetica;fontSize=12;fontColor=default;entryX=1;entryY=0.5;entryDx=0;entryDy=0;exitX=0;exitY=0.5;exitDx=0;exitDy=0;" edge="1" parent="X4Xl9BsfQZ1o-qGfEfdW-312">
          <mxGeometry width="50" height="50" relative="1" as="geometry">
            <mxPoint y="389.23" as="sourcePoint" />
            <mxPoint x="250" y="389.23" as="targetPoint" />
          </mxGeometry>
        </mxCell>
        <mxCell id="X4Xl9BsfQZ1o-qGfEfdW-130" value="" style="endArrow=none;html=1;rounded=0;fontFamily=Helvetica;fontSize=12;fontColor=default;entryX=1;entryY=0.5;entryDx=0;entryDy=0;exitX=0;exitY=0.5;exitDx=0;exitDy=0;" edge="1" parent="X4Xl9BsfQZ1o-qGfEfdW-312">
          <mxGeometry width="50" height="50" relative="1" as="geometry">
            <mxPoint y="360" as="sourcePoint" />
            <mxPoint x="250" y="360" as="targetPoint" />
          </mxGeometry>
        </mxCell>
        <mxCell id="X4Xl9BsfQZ1o-qGfEfdW-132" value="provider_id" style="shape=partialRectangle;overflow=hidden;connectable=0;fillColor=none;top=0;left=0;bottom=0;right=0;align=left;spacingLeft=6;container=0;fontStyle=0" vertex="1" parent="X4Xl9BsfQZ1o-qGfEfdW-312">
          <mxGeometry x="30" y="30" width="220" height="30" as="geometry">
            <mxRectangle width="220" height="30" as="alternateBounds" />
          </mxGeometry>
        </mxCell>
        <mxCell id="X4Xl9BsfQZ1o-qGfEfdW-136" value="show_id" style="shape=partialRectangle;overflow=hidden;connectable=0;fillColor=none;top=0;left=0;bottom=0;right=0;align=left;spacingLeft=6;container=0;fontStyle=0" vertex="1" parent="X4Xl9BsfQZ1o-qGfEfdW-312">
          <mxGeometry x="30" y="90" width="220" height="30" as="geometry">
            <mxRectangle width="220" height="30" as="alternateBounds" />
          </mxGeometry>
        </mxCell>
        <mxCell id="X4Xl9BsfQZ1o-qGfEfdW-137" value="" style="endArrow=none;html=1;rounded=0;fontFamily=Helvetica;fontSize=12;fontColor=default;entryX=1;entryY=0.5;entryDx=0;entryDy=0;exitX=0;exitY=0.5;exitDx=0;exitDy=0;fontStyle=0" edge="1" parent="X4Xl9BsfQZ1o-qGfEfdW-312">
          <mxGeometry width="50" height="50" relative="1" as="geometry">
            <mxPoint y="60" as="sourcePoint" />
            <mxPoint x="250" y="60" as="targetPoint" />
          </mxGeometry>
        </mxCell>
        <mxCell id="X4Xl9BsfQZ1o-qGfEfdW-138" value="" style="endArrow=none;html=1;rounded=0;fontFamily=Helvetica;fontSize=12;fontColor=default;entryX=1;entryY=0.5;entryDx=0;entryDy=0;exitX=0;exitY=0.5;exitDx=0;exitDy=0;fontStyle=0" edge="1" parent="X4Xl9BsfQZ1o-qGfEfdW-312">
          <mxGeometry width="50" height="50" relative="1" as="geometry">
            <mxPoint y="119.23000000000002" as="sourcePoint" />
            <mxPoint x="250" y="119.23000000000002" as="targetPoint" />
          </mxGeometry>
        </mxCell>
        <mxCell id="X4Xl9BsfQZ1o-qGfEfdW-139" value="" style="endArrow=none;html=1;rounded=0;fontFamily=Helvetica;fontSize=12;fontColor=default;entryX=1;entryY=0.5;entryDx=0;entryDy=0;exitX=0;exitY=0.5;exitDx=0;exitDy=0;fontStyle=0" edge="1" parent="X4Xl9BsfQZ1o-qGfEfdW-312">
          <mxGeometry width="50" height="50" relative="1" as="geometry">
            <mxPoint y="90" as="sourcePoint" />
            <mxPoint x="250" y="90" as="targetPoint" />
          </mxGeometry>
        </mxCell>
        <mxCell id="X4Xl9BsfQZ1o-qGfEfdW-134" value="provider" style="shape=partialRectangle;overflow=hidden;connectable=0;fillColor=none;top=0;left=0;bottom=0;right=0;align=left;spacingLeft=6;container=0;fontStyle=0" vertex="1" parent="X4Xl9BsfQZ1o-qGfEfdW-312">
          <mxGeometry x="30" y="60" width="220" height="30" as="geometry">
            <mxRectangle width="220" height="30" as="alternateBounds" />
          </mxGeometry>
        </mxCell>
        <mxCell id="X4Xl9BsfQZ1o-qGfEfdW-328" value="" style="group" connectable="0" vertex="1" parent="1">
          <mxGeometry x="1060" y="815" width="250" height="120" as="geometry" />
        </mxCell>
        <mxCell id="X4Xl9BsfQZ1o-qGfEfdW-329" value="IMDbRating_2NF " style="swimlane;strokeColor=default;fontFamily=Helvetica;fontSize=12;fontColor=default;fillColor=none;startSize=30;container=0;" vertex="1" parent="X4Xl9BsfQZ1o-qGfEfdW-328">
          <mxGeometry width="250" height="120" as="geometry" />
        </mxCell>
        <mxCell id="X4Xl9BsfQZ1o-qGfEfdW-330" value="" style="endArrow=none;html=1;rounded=0;fontFamily=Helvetica;fontSize=12;fontColor=default;entryX=1;entryY=0.5;entryDx=0;entryDy=0;exitX=0;exitY=0.5;exitDx=0;exitDy=0;" edge="1" parent="X4Xl9BsfQZ1o-qGfEfdW-328" source="X4Xl9BsfQZ1o-qGfEfdW-329" target="X4Xl9BsfQZ1o-qGfEfdW-329">
          <mxGeometry width="50" height="50" relative="1" as="geometry">
            <mxPoint x="70" y="160" as="sourcePoint" />
            <mxPoint x="120" y="110" as="targetPoint" />
          </mxGeometry>
        </mxCell>
        <mxCell id="X4Xl9BsfQZ1o-qGfEfdW-331" value="PK" style="shape=partialRectangle;overflow=hidden;connectable=0;fillColor=none;top=0;left=0;bottom=0;right=0;container=0;fontStyle=1" vertex="1" parent="X4Xl9BsfQZ1o-qGfEfdW-328">
          <mxGeometry y="30" width="30" height="30" as="geometry">
            <mxRectangle width="30" height="30" as="alternateBounds" />
          </mxGeometry>
        </mxCell>
        <mxCell id="X4Xl9BsfQZ1o-qGfEfdW-332" value="tconst" style="shape=partialRectangle;overflow=hidden;connectable=0;fillColor=none;top=0;left=0;bottom=0;right=0;align=left;spacingLeft=6;strokeColor=default;strokeWidth=1;perimeterSpacing=1;rotation=0;container=0;fontStyle=1" vertex="1" parent="X4Xl9BsfQZ1o-qGfEfdW-328">
          <mxGeometry x="30" y="30" width="220" height="30" as="geometry">
            <mxRectangle width="220" height="30" as="alternateBounds" />
          </mxGeometry>
        </mxCell>
        <mxCell id="X4Xl9BsfQZ1o-qGfEfdW-333" value="" style="shape=partialRectangle;overflow=hidden;connectable=0;fillColor=none;top=0;left=0;bottom=0;right=0;container=0;" vertex="1" parent="X4Xl9BsfQZ1o-qGfEfdW-328">
          <mxGeometry y="60" width="30" height="30" as="geometry">
            <mxRectangle width="30" height="30" as="alternateBounds" />
          </mxGeometry>
        </mxCell>
        <mxCell id="X4Xl9BsfQZ1o-qGfEfdW-334" value="average" style="shape=partialRectangle;overflow=hidden;connectable=0;fillColor=none;top=0;left=0;bottom=0;right=0;align=left;spacingLeft=6;container=0;" vertex="1" parent="X4Xl9BsfQZ1o-qGfEfdW-328">
          <mxGeometry x="30" y="60" width="220" height="30" as="geometry">
            <mxRectangle width="220" height="30" as="alternateBounds" />
          </mxGeometry>
        </mxCell>
        <mxCell id="X4Xl9BsfQZ1o-qGfEfdW-335" value="" style="shape=partialRectangle;overflow=hidden;connectable=0;fillColor=none;top=0;left=0;bottom=0;right=0;container=0;" vertex="1" parent="X4Xl9BsfQZ1o-qGfEfdW-328">
          <mxGeometry y="90" width="30" height="30" as="geometry">
            <mxRectangle width="30" height="30" as="alternateBounds" />
          </mxGeometry>
        </mxCell>
        <mxCell id="X4Xl9BsfQZ1o-qGfEfdW-336" value="numVotes" style="shape=partialRectangle;overflow=hidden;connectable=0;fillColor=none;top=0;left=0;bottom=0;right=0;align=left;spacingLeft=6;container=0;" vertex="1" parent="X4Xl9BsfQZ1o-qGfEfdW-328">
          <mxGeometry x="30" y="90" width="220" height="30" as="geometry">
            <mxRectangle width="220" height="30" as="alternateBounds" />
          </mxGeometry>
        </mxCell>
        <mxCell id="X4Xl9BsfQZ1o-qGfEfdW-337" value="" style="endArrow=none;html=1;rounded=0;fontFamily=Helvetica;fontSize=12;fontColor=default;entryX=1;entryY=0.5;entryDx=0;entryDy=0;exitX=0;exitY=0.5;exitDx=0;exitDy=0;" edge="1" parent="X4Xl9BsfQZ1o-qGfEfdW-328">
          <mxGeometry width="50" height="50" relative="1" as="geometry">
            <mxPoint y="89.23" as="sourcePoint" />
            <mxPoint x="250" y="89.23" as="targetPoint" />
          </mxGeometry>
        </mxCell>
        <mxCell id="X4Xl9BsfQZ1o-qGfEfdW-340" value="IMDbLookup_2NF " style="swimlane;strokeColor=default;fontFamily=Helvetica;fontSize=12;fontColor=default;fillColor=none;startSize=30;container=0;" vertex="1" parent="1">
          <mxGeometry x="690" y="825" width="270" height="120" as="geometry" />
        </mxCell>
        <mxCell id="X4Xl9BsfQZ1o-qGfEfdW-342" value="FK2" style="shape=partialRectangle;overflow=hidden;connectable=0;fillColor=none;top=0;left=0;bottom=0;right=0;container=0;fontStyle=0" vertex="1" parent="X4Xl9BsfQZ1o-qGfEfdW-340">
          <mxGeometry x="5" y="90" width="30" height="30" as="geometry">
            <mxRectangle width="30" height="30" as="alternateBounds" />
          </mxGeometry>
        </mxCell>
        <mxCell id="X4Xl9BsfQZ1o-qGfEfdW-343" value="tconst" style="shape=partialRectangle;overflow=hidden;connectable=0;fillColor=none;top=0;left=0;bottom=0;right=0;align=left;spacingLeft=6;strokeColor=default;strokeWidth=1;perimeterSpacing=1;rotation=0;container=0;fontStyle=0" vertex="1" parent="X4Xl9BsfQZ1o-qGfEfdW-340">
          <mxGeometry x="50" y="90" width="220" height="30" as="geometry">
            <mxRectangle width="220" height="30" as="alternateBounds" />
          </mxGeometry>
        </mxCell>
        <mxCell id="X4Xl9BsfQZ1o-qGfEfdW-341" value="" style="endArrow=none;html=1;rounded=0;fontFamily=Helvetica;fontSize=12;fontColor=default;entryX=1;entryY=0.75;entryDx=0;entryDy=0;exitX=0;exitY=0.5;exitDx=0;exitDy=0;" edge="1" parent="X4Xl9BsfQZ1o-qGfEfdW-340" target="X4Xl9BsfQZ1o-qGfEfdW-340">
          <mxGeometry width="50" height="50" relative="1" as="geometry">
            <mxPoint y="90" as="sourcePoint" />
            <mxPoint x="250" y="90" as="targetPoint" />
          </mxGeometry>
        </mxCell>
        <mxCell id="X4Xl9BsfQZ1o-qGfEfdW-344" value="PK,FK1" style="shape=partialRectangle;overflow=hidden;connectable=0;fillColor=none;top=0;left=0;bottom=0;right=0;container=0;fontStyle=1" vertex="1" parent="X4Xl9BsfQZ1o-qGfEfdW-340">
          <mxGeometry x="2.5" y="30" width="45" height="30" as="geometry">
            <mxRectangle width="30" height="30" as="alternateBounds" />
          </mxGeometry>
        </mxCell>
        <mxCell id="X4Xl9BsfQZ1o-qGfEfdW-346" value="PK,FK1" style="shape=partialRectangle;overflow=hidden;connectable=0;fillColor=none;top=0;left=0;bottom=0;right=0;container=0;fontStyle=1" vertex="1" parent="X4Xl9BsfQZ1o-qGfEfdW-340">
          <mxGeometry y="60" width="50" height="30" as="geometry">
            <mxRectangle width="30" height="30" as="alternateBounds" />
          </mxGeometry>
        </mxCell>
        <mxCell id="X4Xl9BsfQZ1o-qGfEfdW-348" value="" style="endArrow=none;html=1;rounded=0;fontFamily=Helvetica;fontSize=12;fontColor=default;entryX=1;entryY=0.5;entryDx=0;entryDy=0;exitX=0;exitY=0.5;exitDx=0;exitDy=0;" edge="1" parent="X4Xl9BsfQZ1o-qGfEfdW-340" target="X4Xl9BsfQZ1o-qGfEfdW-340">
          <mxGeometry width="50" height="50" relative="1" as="geometry">
            <mxPoint y="59.23000000000002" as="sourcePoint" />
            <mxPoint x="250" y="59.23000000000002" as="targetPoint" />
          </mxGeometry>
        </mxCell>
        <mxCell id="X4Xl9BsfQZ1o-qGfEfdW-345" value="show_id" style="shape=partialRectangle;overflow=hidden;connectable=0;fillColor=none;top=0;left=0;bottom=0;right=0;align=left;spacingLeft=6;container=0;fontStyle=1" vertex="1" parent="X4Xl9BsfQZ1o-qGfEfdW-340">
          <mxGeometry x="50" y="30" width="210" height="30" as="geometry">
            <mxRectangle width="220" height="30" as="alternateBounds" />
          </mxGeometry>
        </mxCell>
        <mxCell id="X4Xl9BsfQZ1o-qGfEfdW-347" value="show_type" style="shape=partialRectangle;overflow=hidden;connectable=0;fillColor=none;top=0;left=0;bottom=0;right=0;align=left;spacingLeft=6;container=0;fontStyle=1" vertex="1" parent="X4Xl9BsfQZ1o-qGfEfdW-340">
          <mxGeometry x="50" y="60" width="210" height="30" as="geometry">
            <mxRectangle width="220" height="30" as="alternateBounds" />
          </mxGeometry>
        </mxCell>
        <mxCell id="uPgKDosanOclP2uNmE64-1" value="ShowSpecifics_2NF" style="swimlane;strokeColor=default;fontFamily=Helvetica;fontSize=12;fontColor=default;fillColor=none;startSize=30;container=0;" vertex="1" parent="1">
          <mxGeometry x="340" y="575" width="250" height="310" as="geometry" />
        </mxCell>
        <mxCell id="uPgKDosanOclP2uNmE64-2" value="" style="group" connectable="0" vertex="1" parent="1">
          <mxGeometry x="1060" y="550" width="250" height="100" as="geometry" />
        </mxCell>
        <mxCell id="uPgKDosanOclP2uNmE64-3" value="Providers_2NF" style="swimlane;strokeColor=default;fontFamily=Helvetica;fontSize=12;fontColor=default;fillColor=none;startSize=30;container=0;" vertex="1" parent="uPgKDosanOclP2uNmE64-2">
          <mxGeometry width="250" height="100" as="geometry" />
        </mxCell>
        <mxCell id="uPgKDosanOclP2uNmE64-4" value="" style="endArrow=none;html=1;rounded=0;fontFamily=Helvetica;fontSize=12;fontColor=default;" edge="1" parent="uPgKDosanOclP2uNmE64-3">
          <mxGeometry width="50" height="50" relative="1" as="geometry">
            <mxPoint y="64.56999999999994" as="sourcePoint" />
            <mxPoint x="250" y="64" as="targetPoint" />
          </mxGeometry>
        </mxCell>
        <mxCell id="uPgKDosanOclP2uNmE64-5" value="provider_id" style="shape=partialRectangle;overflow=hidden;connectable=0;fillColor=none;top=0;left=0;bottom=0;right=0;align=left;spacingLeft=6;strokeColor=default;strokeWidth=1;perimeterSpacing=1;rotation=0;container=0;fontStyle=1" vertex="1" parent="uPgKDosanOclP2uNmE64-3">
          <mxGeometry x="30" y="30" width="220" height="30" as="geometry">
            <mxRectangle width="220" height="30" as="alternateBounds" />
          </mxGeometry>
        </mxCell>
        <mxCell id="uPgKDosanOclP2uNmE64-6" value="provider" style="shape=partialRectangle;overflow=hidden;connectable=0;fillColor=none;top=0;left=0;bottom=0;right=0;align=left;spacingLeft=6;container=0;" vertex="1" parent="uPgKDosanOclP2uNmE64-3">
          <mxGeometry x="30" y="64" width="220" height="30" as="geometry">
            <mxRectangle width="220" height="30" as="alternateBounds" />
          </mxGeometry>
        </mxCell>
        <mxCell id="uPgKDosanOclP2uNmE64-7" value="PK" style="shape=partialRectangle;overflow=hidden;connectable=0;fillColor=none;top=0;left=0;bottom=0;right=0;container=0;fontStyle=1" vertex="1" parent="uPgKDosanOclP2uNmE64-2">
          <mxGeometry y="30" width="30" height="30" as="geometry">
            <mxRectangle width="30" height="30" as="alternateBounds" />
          </mxGeometry>
        </mxCell>
        <mxCell id="uPgKDosanOclP2uNmE64-8" value="" style="shape=partialRectangle;overflow=hidden;connectable=0;fillColor=none;top=0;left=0;bottom=0;right=0;container=0;" vertex="1" parent="uPgKDosanOclP2uNmE64-2">
          <mxGeometry y="60" width="30" height="30" as="geometry">
            <mxRectangle width="30" height="30" as="alternateBounds" />
          </mxGeometry>
        </mxCell>
        <mxCell id="uPgKDosanOclP2uNmE64-9" value="" style="group" connectable="0" vertex="1" parent="1">
          <mxGeometry x="1060" y="655" width="250" height="100" as="geometry" />
        </mxCell>
        <mxCell id="uPgKDosanOclP2uNmE64-10" value="Genres_2NF" style="swimlane;strokeColor=default;fontFamily=Helvetica;fontSize=12;fontColor=default;fillColor=none;startSize=30;container=0;" vertex="1" parent="uPgKDosanOclP2uNmE64-9">
          <mxGeometry width="250" height="100" as="geometry" />
        </mxCell>
        <mxCell id="uPgKDosanOclP2uNmE64-11" value="" style="endArrow=none;html=1;rounded=0;fontFamily=Helvetica;fontSize=12;fontColor=default;" edge="1" parent="uPgKDosanOclP2uNmE64-10">
          <mxGeometry width="50" height="50" relative="1" as="geometry">
            <mxPoint y="64.56999999999994" as="sourcePoint" />
            <mxPoint x="250" y="64" as="targetPoint" />
          </mxGeometry>
        </mxCell>
        <mxCell id="uPgKDosanOclP2uNmE64-12" value="genre_id" style="shape=partialRectangle;overflow=hidden;connectable=0;fillColor=none;top=0;left=0;bottom=0;right=0;align=left;spacingLeft=6;strokeColor=default;strokeWidth=1;perimeterSpacing=1;rotation=0;container=0;fontStyle=1" vertex="1" parent="uPgKDosanOclP2uNmE64-10">
          <mxGeometry x="30" y="30" width="220" height="30" as="geometry">
            <mxRectangle width="220" height="30" as="alternateBounds" />
          </mxGeometry>
        </mxCell>
        <mxCell id="uPgKDosanOclP2uNmE64-13" value="genre" style="shape=partialRectangle;overflow=hidden;connectable=0;fillColor=none;top=0;left=0;bottom=0;right=0;align=left;spacingLeft=6;container=0;" vertex="1" parent="uPgKDosanOclP2uNmE64-10">
          <mxGeometry x="30" y="66" width="220" height="30" as="geometry">
            <mxRectangle width="220" height="30" as="alternateBounds" />
          </mxGeometry>
        </mxCell>
        <mxCell id="uPgKDosanOclP2uNmE64-14" value="PK" style="shape=partialRectangle;overflow=hidden;connectable=0;fillColor=none;top=0;left=0;bottom=0;right=0;container=0;fontStyle=1" vertex="1" parent="uPgKDosanOclP2uNmE64-9">
          <mxGeometry y="30" width="30" height="30" as="geometry">
            <mxRectangle width="30" height="30" as="alternateBounds" />
          </mxGeometry>
        </mxCell>
        <mxCell id="uPgKDosanOclP2uNmE64-15" value="" style="shape=partialRectangle;overflow=hidden;connectable=0;fillColor=none;top=0;left=0;bottom=0;right=0;container=0;" vertex="1" parent="uPgKDosanOclP2uNmE64-9">
          <mxGeometry y="60" width="30" height="30" as="geometry">
            <mxRectangle width="30" height="30" as="alternateBounds" />
          </mxGeometry>
        </mxCell>
        <mxCell id="uPgKDosanOclP2uNmE64-16" value="" style="group" connectable="0" vertex="1" parent="1">
          <mxGeometry x="690" y="550" width="270" height="150" as="geometry" />
        </mxCell>
        <mxCell id="uPgKDosanOclP2uNmE64-18" value="ProviderShow_2NF" style="swimlane;strokeColor=default;fontFamily=Helvetica;fontSize=12;fontColor=default;fillColor=none;startSize=30;container=0;" vertex="1" parent="uPgKDosanOclP2uNmE64-16">
          <mxGeometry width="270" height="150" as="geometry" />
        </mxCell>
        <mxCell id="uPgKDosanOclP2uNmE64-19" value="PK,FK2" style="shape=partialRectangle;overflow=hidden;connectable=0;fillColor=none;top=0;left=0;bottom=0;right=0;container=0;fontStyle=1" vertex="1" parent="uPgKDosanOclP2uNmE64-18">
          <mxGeometry y="60" width="50" height="30" as="geometry">
            <mxRectangle width="30" height="30" as="alternateBounds" />
          </mxGeometry>
        </mxCell>
        <mxCell id="uPgKDosanOclP2uNmE64-20" value="PK,FK2" style="shape=partialRectangle;overflow=hidden;connectable=0;fillColor=none;top=0;left=0;bottom=0;right=0;container=0;fontStyle=1" vertex="1" parent="uPgKDosanOclP2uNmE64-18">
          <mxGeometry y="90" width="50" height="30" as="geometry">
            <mxRectangle width="30" height="30" as="alternateBounds" />
          </mxGeometry>
        </mxCell>
        <mxCell id="uPgKDosanOclP2uNmE64-21" value="PK,FK3" style="shape=partialRectangle;overflow=hidden;connectable=0;fillColor=none;top=0;left=0;bottom=0;right=0;container=0;fontStyle=1" vertex="1" parent="uPgKDosanOclP2uNmE64-18">
          <mxGeometry y="120" width="50" height="30" as="geometry">
            <mxRectangle width="30" height="30" as="alternateBounds" />
          </mxGeometry>
        </mxCell>
        <mxCell id="uPgKDosanOclP2uNmE64-22" value="show_type" style="shape=partialRectangle;overflow=hidden;connectable=0;fillColor=none;top=0;left=0;bottom=0;right=0;align=left;spacingLeft=6;container=0;fontStyle=1" vertex="1" parent="uPgKDosanOclP2uNmE64-18">
          <mxGeometry x="50" y="90" width="220" height="30" as="geometry">
            <mxRectangle width="220" height="30" as="alternateBounds" />
          </mxGeometry>
        </mxCell>
        <mxCell id="uPgKDosanOclP2uNmE64-23" value="show_id" style="shape=partialRectangle;overflow=hidden;connectable=0;fillColor=none;top=0;left=0;bottom=0;right=0;align=left;spacingLeft=6;container=0;fontStyle=1" vertex="1" parent="uPgKDosanOclP2uNmE64-18">
          <mxGeometry x="50" y="60" width="220" height="30" as="geometry">
            <mxRectangle width="220" height="30" as="alternateBounds" />
          </mxGeometry>
        </mxCell>
        <mxCell id="uPgKDosanOclP2uNmE64-24" value="genre_id" style="shape=partialRectangle;overflow=hidden;connectable=0;fillColor=none;top=0;left=0;bottom=0;right=0;align=left;spacingLeft=6;container=0;fontStyle=1" vertex="1" parent="uPgKDosanOclP2uNmE64-16">
          <mxGeometry x="50" y="120" width="220" height="30" as="geometry">
            <mxRectangle width="220" height="30" as="alternateBounds" />
          </mxGeometry>
        </mxCell>
        <mxCell id="uPgKDosanOclP2uNmE64-25" value="" style="endArrow=none;html=1;rounded=0;fontFamily=Helvetica;fontSize=12;fontColor=default;entryX=1;entryY=0.5;entryDx=0;entryDy=0;exitX=0;exitY=0.5;exitDx=0;exitDy=0;" edge="1" parent="uPgKDosanOclP2uNmE64-16">
          <mxGeometry width="50" height="50" relative="1" as="geometry">
            <mxPoint x="20" y="150" as="sourcePoint" />
            <mxPoint x="270" y="150" as="targetPoint" />
          </mxGeometry>
        </mxCell>
        <mxCell id="uPgKDosanOclP2uNmE64-26" value="PK,FK1" style="shape=partialRectangle;overflow=hidden;connectable=0;fillColor=none;top=0;left=0;bottom=0;right=0;container=0;fontStyle=1" vertex="1" parent="uPgKDosanOclP2uNmE64-16">
          <mxGeometry y="30" width="50" height="30" as="geometry">
            <mxRectangle width="30" height="30" as="alternateBounds" />
          </mxGeometry>
        </mxCell>
        <mxCell id="uPgKDosanOclP2uNmE64-27" value="provider_id" style="shape=partialRectangle;overflow=hidden;connectable=0;fillColor=none;top=0;left=0;bottom=0;right=0;align=left;spacingLeft=6;container=0;fontStyle=1" vertex="1" parent="uPgKDosanOclP2uNmE64-16">
          <mxGeometry x="50" y="30" width="220" height="30" as="geometry">
            <mxRectangle width="220" height="30" as="alternateBounds" />
          </mxGeometry>
        </mxCell>
        <mxCell id="uPgKDosanOclP2uNmE64-28" value="" style="endArrow=none;html=1;rounded=0;fontFamily=Helvetica;fontSize=12;fontColor=default;entryX=1;entryY=0.5;entryDx=0;entryDy=0;" edge="1" parent="uPgKDosanOclP2uNmE64-16">
          <mxGeometry width="50" height="50" relative="1" as="geometry">
            <mxPoint y="60" as="sourcePoint" />
            <mxPoint x="270" y="60" as="targetPoint" />
          </mxGeometry>
        </mxCell>
        <mxCell id="uPgKDosanOclP2uNmE64-29" value="" style="endArrow=none;html=1;rounded=0;fontFamily=Helvetica;fontSize=12;fontColor=default;entryX=1;entryY=0.5;entryDx=0;entryDy=0;" edge="1" parent="uPgKDosanOclP2uNmE64-16">
          <mxGeometry width="50" height="50" relative="1" as="geometry">
            <mxPoint y="119" as="sourcePoint" />
            <mxPoint x="270" y="119.23000000000002" as="targetPoint" />
          </mxGeometry>
        </mxCell>
        <mxCell id="uPgKDosanOclP2uNmE64-30" value="" style="endArrow=none;html=1;rounded=0;fontFamily=Helvetica;fontSize=12;fontColor=default;entryX=1;entryY=0.5;entryDx=0;entryDy=0;" edge="1" parent="uPgKDosanOclP2uNmE64-16">
          <mxGeometry width="50" height="50" relative="1" as="geometry">
            <mxPoint y="90" as="sourcePoint" />
            <mxPoint x="270" y="90" as="targetPoint" />
          </mxGeometry>
        </mxCell>
        <mxCell id="uPgKDosanOclP2uNmE64-34" value="show_type" style="shape=partialRectangle;overflow=hidden;connectable=0;fillColor=none;top=0;left=0;bottom=0;right=0;align=left;spacingLeft=6;container=0;fontStyle=1" vertex="1" parent="1">
          <mxGeometry x="370" y="635" width="220" height="30" as="geometry">
            <mxRectangle width="220" height="30" as="alternateBounds" />
          </mxGeometry>
        </mxCell>
        <mxCell id="uPgKDosanOclP2uNmE64-35" value="PK" style="shape=partialRectangle;overflow=hidden;connectable=0;fillColor=none;top=0;left=0;bottom=0;right=0;container=0;fontStyle=1" vertex="1" parent="1">
          <mxGeometry x="340" y="635" width="30" height="30" as="geometry">
            <mxRectangle width="30" height="30" as="alternateBounds" />
          </mxGeometry>
        </mxCell>
        <mxCell id="uPgKDosanOclP2uNmE64-36" value="show_id" style="shape=partialRectangle;overflow=hidden;connectable=0;fillColor=none;top=0;left=0;bottom=0;right=0;align=left;spacingLeft=6;container=0;fontStyle=1" vertex="1" parent="1">
          <mxGeometry x="370" y="606" width="220" height="30" as="geometry">
            <mxRectangle width="220" height="30" as="alternateBounds" />
          </mxGeometry>
        </mxCell>
        <mxCell id="uPgKDosanOclP2uNmE64-37" value="PK" style="shape=partialRectangle;overflow=hidden;connectable=0;fillColor=none;top=0;left=0;bottom=0;right=0;container=0;fontStyle=1" vertex="1" parent="1">
          <mxGeometry x="340" y="605" width="30" height="30" as="geometry">
            <mxRectangle width="30" height="30" as="alternateBounds" />
          </mxGeometry>
        </mxCell>
        <mxCell id="uPgKDosanOclP2uNmE64-38" value="" style="endArrow=none;html=1;rounded=0;fontFamily=Helvetica;fontSize=12;fontColor=default;entryX=1;entryY=0.5;entryDx=0;entryDy=0;exitX=0;exitY=0.5;exitDx=0;exitDy=0;" edge="1" parent="1">
          <mxGeometry width="50" height="50" relative="1" as="geometry">
            <mxPoint x="340" y="635" as="sourcePoint" />
            <mxPoint x="590" y="635" as="targetPoint" />
          </mxGeometry>
        </mxCell>
        <mxCell id="uPgKDosanOclP2uNmE64-39" value="" style="endArrow=none;html=1;rounded=0;fontFamily=Helvetica;fontSize=12;fontColor=default;entryX=1;entryY=0.5;entryDx=0;entryDy=0;exitX=0;exitY=0.5;exitDx=0;exitDy=0;" edge="1" parent="1">
          <mxGeometry width="50" height="50" relative="1" as="geometry">
            <mxPoint x="340" y="665" as="sourcePoint" />
            <mxPoint x="590" y="665" as="targetPoint" />
          </mxGeometry>
        </mxCell>
        <mxCell id="uPgKDosanOclP2uNmE64-40" value="" style="shape=partialRectangle;overflow=hidden;connectable=0;fillColor=none;top=0;left=0;bottom=0;right=0;container=0;" vertex="1" parent="1">
          <mxGeometry x="340" y="665" width="30" height="30" as="geometry">
            <mxRectangle width="30" height="30" as="alternateBounds" />
          </mxGeometry>
        </mxCell>
        <mxCell id="uPgKDosanOclP2uNmE64-41" value="" style="shape=partialRectangle;overflow=hidden;connectable=0;fillColor=none;top=0;left=0;bottom=0;right=0;container=0;" vertex="1" parent="1">
          <mxGeometry x="340" y="665" width="30" height="30" as="geometry">
            <mxRectangle width="30" height="30" as="alternateBounds" />
          </mxGeometry>
        </mxCell>
        <mxCell id="uPgKDosanOclP2uNmE64-42" value="" style="shape=partialRectangle;overflow=hidden;connectable=0;fillColor=none;top=0;left=0;bottom=0;right=0;container=0;" vertex="1" parent="1">
          <mxGeometry x="340" y="695" width="30" height="30" as="geometry">
            <mxRectangle width="30" height="30" as="alternateBounds" />
          </mxGeometry>
        </mxCell>
        <mxCell id="uPgKDosanOclP2uNmE64-43" value="" style="shape=partialRectangle;overflow=hidden;connectable=0;fillColor=none;top=0;left=0;bottom=0;right=0;container=0;" vertex="1" parent="1">
          <mxGeometry x="340" y="725" width="30" height="30" as="geometry">
            <mxRectangle width="30" height="30" as="alternateBounds" />
          </mxGeometry>
        </mxCell>
        <mxCell id="uPgKDosanOclP2uNmE64-44" value="" style="shape=partialRectangle;overflow=hidden;connectable=0;fillColor=none;top=0;left=0;bottom=0;right=0;container=0;" vertex="1" parent="1">
          <mxGeometry x="340" y="755" width="30" height="30" as="geometry">
            <mxRectangle width="30" height="30" as="alternateBounds" />
          </mxGeometry>
        </mxCell>
        <mxCell id="uPgKDosanOclP2uNmE64-45" value="" style="shape=partialRectangle;overflow=hidden;connectable=0;fillColor=none;top=0;left=0;bottom=0;right=0;container=0;" vertex="1" parent="1">
          <mxGeometry x="340" y="785" width="30" height="30" as="geometry">
            <mxRectangle width="30" height="30" as="alternateBounds" />
          </mxGeometry>
        </mxCell>
        <mxCell id="uPgKDosanOclP2uNmE64-46" value="" style="shape=partialRectangle;overflow=hidden;connectable=0;fillColor=none;top=0;left=0;bottom=0;right=0;container=0;" vertex="1" parent="1">
          <mxGeometry x="340" y="815" width="30" height="30" as="geometry">
            <mxRectangle width="30" height="30" as="alternateBounds" />
          </mxGeometry>
        </mxCell>
        <mxCell id="uPgKDosanOclP2uNmE64-47" value="" style="shape=partialRectangle;overflow=hidden;connectable=0;fillColor=none;top=0;left=0;bottom=0;right=0;container=0;" vertex="1" parent="1">
          <mxGeometry x="340" y="845" width="30" height="30" as="geometry">
            <mxRectangle width="30" height="30" as="alternateBounds" />
          </mxGeometry>
        </mxCell>
        <mxCell id="uPgKDosanOclP2uNmE64-48" value="" style="endArrow=none;html=1;rounded=0;fontFamily=Helvetica;fontSize=12;fontColor=default;entryX=1;entryY=0.5;entryDx=0;entryDy=0;exitX=0;exitY=0.5;exitDx=0;exitDy=0;" edge="1" parent="1">
          <mxGeometry width="50" height="50" relative="1" as="geometry">
            <mxPoint x="340" y="694.23" as="sourcePoint" />
            <mxPoint x="590" y="694.23" as="targetPoint" />
          </mxGeometry>
        </mxCell>
        <mxCell id="uPgKDosanOclP2uNmE64-49" value="" style="endArrow=none;html=1;rounded=0;fontFamily=Helvetica;fontSize=12;fontColor=default;entryX=1;entryY=0.5;entryDx=0;entryDy=0;exitX=0;exitY=0.5;exitDx=0;exitDy=0;" edge="1" parent="1">
          <mxGeometry width="50" height="50" relative="1" as="geometry">
            <mxPoint x="340" y="725" as="sourcePoint" />
            <mxPoint x="590" y="725" as="targetPoint" />
          </mxGeometry>
        </mxCell>
        <mxCell id="uPgKDosanOclP2uNmE64-50" value="" style="endArrow=none;html=1;rounded=0;fontFamily=Helvetica;fontSize=12;fontColor=default;entryX=1;entryY=0.5;entryDx=0;entryDy=0;exitX=0;exitY=0.5;exitDx=0;exitDy=0;" edge="1" parent="1">
          <mxGeometry width="50" height="50" relative="1" as="geometry">
            <mxPoint x="340" y="784.23" as="sourcePoint" />
            <mxPoint x="590" y="784.23" as="targetPoint" />
          </mxGeometry>
        </mxCell>
        <mxCell id="uPgKDosanOclP2uNmE64-51" value="" style="endArrow=none;html=1;rounded=0;fontFamily=Helvetica;fontSize=12;fontColor=default;entryX=1;entryY=0.5;entryDx=0;entryDy=0;exitX=0;exitY=0.5;exitDx=0;exitDy=0;" edge="1" parent="1">
          <mxGeometry width="50" height="50" relative="1" as="geometry">
            <mxPoint x="340" y="755" as="sourcePoint" />
            <mxPoint x="590" y="755" as="targetPoint" />
          </mxGeometry>
        </mxCell>
        <mxCell id="uPgKDosanOclP2uNmE64-52" value="" style="endArrow=none;html=1;rounded=0;fontFamily=Helvetica;fontSize=12;fontColor=default;entryX=1;entryY=0.5;entryDx=0;entryDy=0;exitX=0;exitY=0.5;exitDx=0;exitDy=0;" edge="1" parent="1">
          <mxGeometry width="50" height="50" relative="1" as="geometry">
            <mxPoint x="340" y="815" as="sourcePoint" />
            <mxPoint x="590" y="815" as="targetPoint" />
          </mxGeometry>
        </mxCell>
        <mxCell id="uPgKDosanOclP2uNmE64-53" value="" style="endArrow=none;html=1;rounded=0;fontFamily=Helvetica;fontSize=12;fontColor=default;entryX=1;entryY=0.5;entryDx=0;entryDy=0;exitX=0;exitY=0.5;exitDx=0;exitDy=0;" edge="1" parent="1">
          <mxGeometry width="50" height="50" relative="1" as="geometry">
            <mxPoint x="340" y="845" as="sourcePoint" />
            <mxPoint x="590" y="845" as="targetPoint" />
          </mxGeometry>
        </mxCell>
        <mxCell id="uPgKDosanOclP2uNmE64-54" value="title" style="shape=partialRectangle;overflow=hidden;connectable=0;fillColor=none;top=0;left=0;bottom=0;right=0;align=left;spacingLeft=6;container=0;" vertex="1" parent="1">
          <mxGeometry x="370" y="665" width="220" height="30" as="geometry">
            <mxRectangle width="220" height="30" as="alternateBounds" />
          </mxGeometry>
        </mxCell>
        <mxCell id="uPgKDosanOclP2uNmE64-55" value="release_year" style="shape=partialRectangle;overflow=hidden;connectable=0;fillColor=none;top=0;left=0;bottom=0;right=0;align=left;spacingLeft=6;container=0;" vertex="1" parent="1">
          <mxGeometry x="370" y="695" width="220" height="30" as="geometry">
            <mxRectangle width="220" height="30" as="alternateBounds" />
          </mxGeometry>
        </mxCell>
        <mxCell id="uPgKDosanOclP2uNmE64-56" value="age_certification" style="shape=partialRectangle;overflow=hidden;connectable=0;fillColor=none;top=0;left=0;bottom=0;right=0;align=left;spacingLeft=6;container=0;" vertex="1" parent="1">
          <mxGeometry x="370" y="725" width="220" height="30" as="geometry">
            <mxRectangle width="220" height="30" as="alternateBounds" />
          </mxGeometry>
        </mxCell>
        <mxCell id="uPgKDosanOclP2uNmE64-57" value="runtime" style="shape=partialRectangle;overflow=hidden;connectable=0;fillColor=none;top=0;left=0;bottom=0;right=0;align=left;spacingLeft=6;container=0;" vertex="1" parent="1">
          <mxGeometry x="370" y="755" width="220" height="30" as="geometry">
            <mxRectangle width="220" height="30" as="alternateBounds" />
          </mxGeometry>
        </mxCell>
        <mxCell id="uPgKDosanOclP2uNmE64-58" value="seasons" style="shape=partialRectangle;overflow=hidden;connectable=0;fillColor=none;top=0;left=0;bottom=0;right=0;align=left;spacingLeft=6;container=0;" vertex="1" parent="1">
          <mxGeometry x="370" y="785" width="220" height="30" as="geometry">
            <mxRectangle width="220" height="30" as="alternateBounds" />
          </mxGeometry>
        </mxCell>
        <mxCell id="uPgKDosanOclP2uNmE64-59" value="tmdb_popularity" style="shape=partialRectangle;overflow=hidden;connectable=0;fillColor=none;top=0;left=0;bottom=0;right=0;align=left;spacingLeft=6;container=0;" vertex="1" parent="1">
          <mxGeometry x="370" y="815" width="220" height="30" as="geometry">
            <mxRectangle width="220" height="30" as="alternateBounds" />
          </mxGeometry>
        </mxCell>
        <mxCell id="uPgKDosanOclP2uNmE64-60" value="tmdb_score" style="shape=partialRectangle;overflow=hidden;connectable=0;fillColor=none;top=0;left=0;bottom=0;right=0;align=left;spacingLeft=6;container=0;" vertex="1" parent="1">
          <mxGeometry x="370" y="845" width="220" height="30" as="geometry">
            <mxRectangle width="220" height="30" as="alternateBounds" />
          </mxGeometry>
        </mxCell>
        <mxCell id="LBZpV4SZoT4KfORtt4Vr-31" value="" style="edgeStyle=entityRelationEdgeStyle;fontSize=12;html=1;endArrow=ERmandOne;startArrow=ERmandOne;rounded=0;entryX=0;entryY=0.5;entryDx=0;entryDy=0;" edge="1" parent="1">
          <mxGeometry width="100" height="100" relative="1" as="geometry">
            <mxPoint x="590" y="632" as="sourcePoint" />
            <mxPoint x="690" y="882" as="targetPoint" />
          </mxGeometry>
        </mxCell>
        <mxCell id="LBZpV4SZoT4KfORtt4Vr-32" value="" style="edgeStyle=entityRelationEdgeStyle;fontSize=12;html=1;endArrow=ERoneToMany;startArrow=ERzeroToMany;rounded=0;" edge="1" parent="1">
          <mxGeometry width="100" height="100" relative="1" as="geometry">
            <mxPoint x="590" y="645" as="sourcePoint" />
            <mxPoint x="690" y="635" as="targetPoint" />
          </mxGeometry>
        </mxCell>
        <mxCell id="LBZpV4SZoT4KfORtt4Vr-35" value="" style="edgeStyle=elbowEdgeStyle;fontSize=12;html=1;endArrow=ERoneToMany;startArrow=ERzeroToOne;rounded=0;" edge="1" parent="1">
          <mxGeometry width="100" height="100" relative="1" as="geometry">
            <mxPoint x="1060" y="595" as="sourcePoint" />
            <mxPoint x="960" y="595" as="targetPoint" />
            <Array as="points">
              <mxPoint x="990" y="595" />
              <mxPoint x="1010" y="595" />
            </Array>
          </mxGeometry>
        </mxCell>
        <mxCell id="LBZpV4SZoT4KfORtt4Vr-36" value="" style="edgeStyle=elbowEdgeStyle;fontSize=12;html=1;endArrow=ERoneToMany;startArrow=ERzeroToOne;rounded=0;" edge="1" parent="1">
          <mxGeometry width="100" height="100" relative="1" as="geometry">
            <mxPoint x="1060" y="715" as="sourcePoint" />
            <mxPoint x="960" y="685" as="targetPoint" />
            <Array as="points">
              <mxPoint x="990" y="685" />
              <mxPoint x="1010" y="685" />
            </Array>
          </mxGeometry>
        </mxCell>
        <mxCell id="LBZpV4SZoT4KfORtt4Vr-37" value="" style="edgeStyle=entityRelationEdgeStyle;fontSize=12;html=1;endArrow=ERzeroToOne;startArrow=ERmandOne;rounded=0;" edge="1" parent="1">
          <mxGeometry width="100" height="100" relative="1" as="geometry">
            <mxPoint x="960" y="895" as="sourcePoint" />
            <mxPoint x="1060" y="895" as="targetPoint" />
          </mxGeometry>
        </mxCell>
      </root>
    </mxGraphModel>
  </diagram>
</mxfile>
